<svg id="0b2a7c4e-d351-4f34-b10a-eebf677c4d12" data-name="Layer 1" xmlns="http://www.w3.org/2000/svg" width="20" height="20" viewBox="0 0 20 20"><title>services-symbol</title><path d="M14.605,13.9a.484.484,0,0,1-.484.483H5.9a.483.483,0,0,1-.484-.483v-.942a.484.484,0,0,1,.484-.484h8.226a.484.484,0,0,1,.484.484Zm0-3.435a.484.484,0,0,1-.484.484H5.9a.484.484,0,0,1-.484-.484V9.526A.483.483,0,0,1,5.9,9.043h8.226a.484.484,0,0,1,.484.483Zm0-3.435a.484.484,0,0,1-.484.484H5.9a.484.484,0,0,1-.484-.484V6.092A.483.483,0,0,1,5.9,5.608h8.226a.484.484,0,0,1,.484.484Z"/></svg>